<svg width="180" height="46" viewBox="0 0 180 46" fill="none" xmlns="http://www.w3.org/2000/svg">
<path d="M13.8333 0L0 22.9667L13.8333 16.6833V0Z" fill="#373A36"/>
<path d="M13.8333 16.6833L0 22.9667L13.8333 31.15V16.6833ZM27.6833 22.9667L13.8333 0V16.6833L27.6833 22.9667Z" fill="#373A36"/>
<path d="M13.834 31.15L27.684 22.9667L13.834 16.6833V31.15Z" fill="#373A36"/>
<path d="M0 25.6L13.8333 45.1V33.7666L0 25.6Z" fill="#373A36"/>
<path d="M13.834 33.7666V45.1L27.684 25.6L13.834 33.7666Z" fill="#373A36"/>
<path d="M50.8167 26.0666C50.8167 26.3833 50.5333 26.6666 50.2167 26.6666H39.15C39.4333 29.3 41.4833 31.8666 44.3833 31.8666C46.3667 31.8666 47.8333 31.1 48.95 29.5C49.0667 29.3333 49.2333 29.2166 49.4333 29.2166C49.75 29.2166 49.9833 29.45 49.9833 29.7666C49.9833 29.8833 49.95 29.9666 49.9 30.05C48.7833 32 46.5667 32.95 44.3833 32.95C40.65 32.95 38 29.6166 38 26.05C38 22.4833 40.65 19.1666 44.3833 19.1666C48.1167 19.1666 50.8167 22.5 50.8167 26.0666ZM49.6167 25.5333C49.3833 22.7166 47.2833 20.3 44.3833 20.3C41.4833 20.3 39.4167 22.7166 39.15 25.5333H49.6167ZM64.2667 19.35C64.5833 19.35 64.8167 19.6333 64.8167 19.9166C64.8167 20.2333 64.5833 20.4833 64.2667 20.4833H61.3V32.1833C61.3 32.4666 61.05 32.7333 60.7333 32.7333C60.4167 32.7333 60.1667 32.45 60.1667 32.1833V20.4833H57.3167C57 20.4833 56.7667 20.2333 56.7667 19.9166C56.7667 19.6333 57 19.35 57.3167 19.35H60.1667V15.1166C60.1667 14.8 60.4167 14.5666 60.7333 14.5666C61.05 14.5666 61.3 14.8 61.3 15.1166V19.35H64.2667ZM82.3 25.0333V32.1C82.3 32.4166 82.1167 32.65 81.8333 32.65C81.5167 32.65 81.3667 32.4166 81.3667 32.1V25.0333C81.3667 22.65 79.9833 20.2666 77.3167 20.2666C73.9 20.2666 72.3833 23.25 72.5667 26.3C72.5667 26.3833 72.55 26.7333 72.55 26.7833V32.1C72.55 32.4166 72.4 32.65 72.0833 32.65C71.7667 32.65 71.6167 32.4166 71.6167 32.1V8.88331C71.6167 8.59998 71.7667 8.33331 72.0833 8.33331C72.4 8.33331 72.55 8.61664 72.55 8.88331V22.0166C73.6833 20.3166 75.2 19.1666 77.1833 19.1666C80.4333 19.1666 82.3 22.0166 82.3 25.0333ZM102.267 26.0666C102.267 26.3833 101.983 26.6666 101.667 26.6666H90.6C90.8833 29.3 92.9333 31.8666 95.8333 31.8666C97.8167 31.8666 99.2833 31.1 100.4 29.5C100.517 29.3333 100.683 29.2166 100.883 29.2166C101.2 29.2166 101.433 29.45 101.433 29.7666C101.433 29.8833 101.4 29.9666 101.35 30.05C100.233 32 98.0167 32.95 95.8333 32.95C92.1 32.95 89.45 29.6166 89.45 26.05C89.45 22.4833 92.1 19.1666 95.8333 19.1666C99.5667 19.1666 102.267 22.5 102.267 26.0666ZM101.083 25.5333C100.85 22.7166 98.75 20.3 95.85 20.3C92.95 20.3 90.8833 22.7166 90.6167 25.5333H101.083ZM115.883 19.9166C115.883 20.2666 115.683 20.4666 115.35 20.5166C112.1 21 110.617 23.65 110.617 26.75V32.05C110.617 32.3666 110.367 32.6 110.05 32.6C109.733 32.6 109.483 32.3666 109.483 32.05V19.95C109.483 19.6333 109.733 19.4 110.05 19.4C110.367 19.4 110.617 19.6333 110.617 19.95V22.4166C111.55 20.8666 113.367 19.4 115.267 19.4C115.55 19.4 115.883 19.6 115.883 19.9166ZM134.083 26.0666C134.083 26.3833 133.8 26.6666 133.483 26.6666H122.417C122.7 29.3 124.75 31.8666 127.65 31.8666C129.633 31.8666 131.1 31.1 132.217 29.5C132.333 29.3333 132.5 29.2166 132.7 29.2166C133.017 29.2166 133.25 29.45 133.25 29.7666C133.25 29.8833 133.217 29.9666 133.167 30.05C132.05 32 129.833 32.95 127.65 32.95C123.917 32.95 121.267 29.6166 121.267 26.05C121.267 22.4833 123.917 19.1666 127.65 19.1666C131.383 19.15 134.083 22.5 134.083 26.0666ZM132.9 25.5333C132.667 22.7166 130.567 20.3 127.667 20.3C124.767 20.3 122.7 22.7166 122.433 25.5333H132.9ZM152.067 20.0333V32.1666C152.067 32.4833 151.783 32.7166 151.5 32.7166C151.183 32.7166 150.933 32.4833 150.933 32.1666V29.8833C150 31.7 148.383 33.0166 146.317 33.0166C143.017 33.0166 141.183 30.1666 141.183 27.15V20.05C141.183 19.7666 141.433 19.5 141.75 19.5C142.067 19.5 142.317 19.7833 142.317 20.05V27.15C142.317 29.5333 143.667 31.9166 146.333 31.9166C150.067 31.9166 150.95 28.4333 150.95 24.5833V20.0666C150.95 19.7833 151.2 19.5166 151.517 19.5166C151.783 19.4833 152.067 19.7666 152.067 20.0333ZM180 25V32.1C180 32.4166 179.717 32.65 179.433 32.65C179.117 32.65 178.867 32.4166 178.867 32.1V25C178.867 22.6166 177.517 20.2833 174.85 20.2833C171.517 20.2833 170.233 23.85 170.233 26.6333V32.1C170.233 32.4166 169.95 32.65 169.667 32.65C169.35 32.65 169.1 32.4166 169.1 32.1V25C169.1 22.6166 167.783 20.2833 165.133 20.2833C161.767 20.2833 160.367 22.9333 160.483 26.4666V32.1C160.483 32.4166 160.233 32.65 159.917 32.65C159.6 32.65 159.35 32.4166 159.35 32.1V19.9666C159.35 19.65 159.6 19.4166 159.917 19.4166C160.233 19.4166 160.483 19.65 160.483 19.9666V21.9833C161.417 20.2833 163.167 19.1666 165.15 19.1666C167.417 19.1666 169.167 20.6 169.883 22.7C170.8 20.6333 172.583 19.1666 174.883 19.1666C178.15 19.1666 180 21.9833 180 25Z" fill="#373A36"/>
</svg>
