<svg width="180" height="52" viewBox="0 0 180 52" fill="none" xmlns="http://www.w3.org/2000/svg">
<g clip-path="url(#clip0_32_3398)">
<path d="M158.368 51.586C157.917 51.586 157.47 51.4697 157.075 51.2457L152.961 48.8465C152.347 48.508 152.646 48.3883 152.849 48.3193C153.668 48.0368 153.835 47.9729 154.709 47.4837C154.801 47.4321 154.921 47.4503 155.016 47.505L158.176 49.3524C158.29 49.4132 158.452 49.4132 158.558 49.3524L170.882 42.3456C170.996 42.2818 171.07 42.1511 171.07 42.0174V28.0099C171.07 27.8701 170.996 27.7455 170.88 27.6756L158.561 20.6749C158.447 20.608 158.295 20.608 158.181 20.6749L145.865 27.6756C145.745 27.7425 145.669 27.8731 145.669 28.0068V42.0144C145.669 42.1481 145.744 42.2757 145.861 42.3395L149.236 44.2599C151.068 45.1623 152.188 44.0988 152.188 43.0293V29.204C152.188 29.0065 152.345 28.8546 152.546 28.8546H154.106C154.301 28.8546 154.461 29.0065 154.461 29.204V43.0354C154.461 45.4419 153.129 46.8244 150.812 46.8244C150.099 46.8244 149.538 46.8244 147.971 46.0648L144.738 44.2295C143.939 43.7737 143.445 42.9229 143.445 42.0144V28.0068C143.445 27.0953 143.939 26.2445 144.738 25.7948L157.074 18.7849C157.855 18.3504 158.891 18.3504 159.665 18.7849L171.986 25.7978C172.782 26.2506 173.279 27.0983 173.279 28.0099V42.0174C173.279 42.926 172.782 43.7737 171.986 44.2295L159.665 51.2394C159.27 51.4642 158.823 51.5797 158.367 51.5797" fill="#373A36"/>
<path d="M162.173 41.9339C156.781 41.9339 155.65 39.4957 155.65 37.4508C155.65 37.2564 155.81 37.1014 156.007 37.1014H157.599C157.775 37.1014 157.923 37.2275 157.951 37.3986C158.191 38.9962 158.907 39.802 162.168 39.802C164.765 39.802 165.869 39.2241 165.869 37.8674C165.869 37.0865 165.555 36.5061 161.52 36.1172C158.145 35.7891 156.06 35.0568 156.06 32.3981C156.06 29.949 158.157 28.4905 161.671 28.4905C165.617 28.4905 167.572 29.8396 167.819 32.7384C167.828 32.8387 167.791 32.9359 167.723 33.0088C167.656 33.0787 167.56 33.1212 167.461 33.1212H165.86C165.694 33.1212 165.549 33.0058 165.515 32.8478C165.129 31.1675 164.198 30.6297 161.665 30.6297C158.83 30.6297 158.5 31.602 158.5 32.3312C158.5 33.2154 158.889 33.4737 162.714 33.972C166.502 34.4673 168.3 35.1662 168.3 37.7884C168.3 40.4319 166.061 41.9481 162.155 41.9481M177.166 27.0928H177.579C177.919 27.0928 177.984 26.8589 177.984 26.7221C177.984 26.3636 177.734 26.3636 177.595 26.3636H177.169L177.166 27.0928ZM176.663 25.9443H177.579C177.894 25.9443 178.511 25.9443 178.511 26.637C178.511 27.1202 178.196 27.2204 178.008 27.2812C178.375 27.3055 178.4 27.5425 178.449 27.8768C178.474 28.0864 178.514 28.448 178.588 28.5695H178.024C178.008 28.448 177.922 27.7795 177.922 27.7431C177.885 27.5942 177.832 27.5212 177.644 27.5212H177.178V28.5726H176.663V25.9443ZM175.562 27.2508C175.562 28.3386 176.454 29.2198 177.549 29.2198C178.653 29.2198 179.545 28.3204 179.545 27.2508C179.545 26.16 178.641 25.294 177.546 25.294C176.466 25.294 175.559 26.1478 175.559 27.2478M179.927 27.2569C179.927 28.5452 178.857 29.5966 177.552 29.5966C176.256 29.5966 175.176 28.5574 175.176 27.2569C175.176 25.9321 176.281 24.9172 177.552 24.9172C178.832 24.9172 179.924 25.9351 179.924 27.2569" fill="#373A36"/>
<path fill-rule="evenodd" clip-rule="evenodd" d="M29.2861 27.5138C29.2861 26.9547 28.9869 26.4412 28.497 26.1632L15.4309 18.7583C15.2104 18.6307 14.9633 18.5638 14.7128 18.5547H14.5777C14.3272 18.5638 14.0801 18.6307 13.8558 18.7583L0.790333 26.1632C0.303547 26.4427 0 26.9562 0 27.5153L0.0286889 47.4602C0.0286889 47.7367 0.173676 47.9949 0.420462 48.1317C0.661079 48.2775 0.963392 48.2775 1.20401 48.1317L8.9716 43.7501C9.46209 43.4627 9.76132 42.9546 9.76132 42.401V33.0834C9.76132 32.5273 10.0605 32.0138 10.5495 31.7373L13.8564 29.8613C14.102 29.7216 14.3716 29.6523 14.6461 29.6523C14.9164 29.6523 15.1922 29.721 15.4309 29.861L18.7363 31.7364C19.2256 32.0129 19.526 32.5264 19.526 33.0825V42.3995C19.526 42.9525 19.8293 43.463 20.3173 43.7486L28.08 48.1271C28.3237 48.2699 28.6269 48.2699 28.8697 48.1271C29.1091 47.9904 29.2608 47.7321 29.2608 47.4556L29.2861 27.5138ZM90.9419 37.8982C90.9419 38.0371 90.867 38.1656 90.7445 38.2343L86.2567 40.7824C86.1349 40.8514 85.9843 40.8514 85.8628 40.7824L81.3744 38.2343C81.251 38.1653 81.1769 38.0368 81.1769 37.8982V32.7947C81.1769 32.6556 81.251 32.5273 81.3713 32.4575L85.8566 29.9051C85.98 29.8352 86.1312 29.8352 86.2546 29.9051L90.743 32.4575C90.8664 32.5273 90.9404 32.6556 90.9404 32.7947L90.9419 37.8982ZM92.1543 0.0984433C91.9094 -0.0358592 91.6114 -0.032213 91.3695 0.106647C91.1289 0.246419 90.9802 0.501655 90.9802 0.77816V20.5285C90.9802 20.723 90.8753 20.9023 90.7044 20.9995C90.5348 21.0967 90.3234 21.0967 90.1522 20.9995L86.8792 19.1427C86.3918 18.8649 85.7915 18.8649 85.3023 19.1427L72.2319 26.5728C71.7435 26.8493 71.4421 27.3628 71.4421 27.9158V42.7802C71.4421 43.3363 71.7435 43.8467 72.2319 44.1263L85.3023 51.5615C85.7903 51.838 86.3912 51.838 86.8808 51.5615L99.9512 44.1232C100.439 43.8437 100.741 43.3332 100.741 42.7772V5.73155C100.741 5.16761 100.429 4.64893 99.9296 4.37334L92.1543 0.0984433ZM135.679 32.6604C136.165 32.3827 136.464 31.8698 136.464 31.3168V27.7143C136.464 27.1601 136.164 26.6487 135.678 26.3698L122.691 18.9436C122.2 18.6641 121.599 18.6641 121.108 18.9436L108.041 26.3728C107.55 26.6524 107.251 27.1628 107.251 27.7189V42.5772C107.251 43.1363 107.557 43.6529 108.047 43.9294L121.031 51.2188C121.509 51.4892 122.095 51.4923 122.58 51.2279L130.434 46.9284C130.68 46.7917 130.838 46.5334 130.838 46.2539C130.838 45.9743 130.687 45.713 130.44 45.5763L117.292 38.1441C117.045 38.0073 116.894 37.749 116.894 37.4725V32.8114C116.894 32.5331 117.042 32.2767 117.289 32.1381L121.38 29.8136C121.623 29.6739 121.923 29.6739 122.166 29.8136L126.26 32.1381C126.504 32.2748 126.655 32.5331 126.655 32.8096V36.4741C126.655 36.7506 126.806 37.0089 127.05 37.1486C127.293 37.2854 127.596 37.2854 127.839 37.1456L135.679 32.6604Z" fill="#373A36"/>
<path fill-rule="evenodd" clip-rule="evenodd" d="M121.708 31.9652C121.8 31.9114 121.916 31.9114 122.01 31.9652L124.518 33.3903C124.612 33.4437 124.669 33.5422 124.669 33.6485V36.5017C124.669 36.6081 124.612 36.7065 124.518 36.76L122.01 38.1851C121.916 38.2388 121.8 38.2388 121.708 38.1851L119.201 36.76C119.105 36.7065 119.047 36.6081 119.047 36.5017V33.6485C119.047 33.5422 119.102 33.4437 119.198 33.3903L121.708 31.9652Z" fill="#373A36"/>
<mask id="mask0_32_3398" style="mask-type:alpha" maskUnits="userSpaceOnUse" x="36" y="19" width="30" height="33">
<path d="M36.0918 29.0017C36.0918 27.557 36.8708 26.2246 38.1298 25.516L48.7057 19.5633C49.9238 18.8777 51.4115 18.8777 52.6296 19.5633L63.2054 25.516C64.4644 26.2246 65.2435 27.557 65.2435 29.0017V41.2861C65.2435 42.7394 64.4553 44.0783 63.1846 44.7835L52.6088 50.6535C51.4014 51.3236 49.9338 51.3236 48.7265 50.6535L38.1506 44.7835C36.88 44.0783 36.0918 42.7394 36.0918 41.2861V29.0017Z" fill="#D9D9D9"/>
</mask>
<g mask="url(#mask0_32_3398)">
<path d="M20.2871 30.3816L46.1457 64.8545L80.3441 39.9672L54.484 5.49518L20.2871 30.3816Z" fill="#373A36"/>
</g>
</g>
<defs>
<clipPath id="clip0_32_3398">
<rect width="180" height="51.9588" fill="white"/>
</clipPath>
</defs>
</svg>
