<svg><path fill-rule="" clip-rule="evenodd" d="M2.95806 6.34343L0.933594 4.95229L8.72512 0.102539L16.5166 4.95229L14.4922 6.34343L16.4501 7.56213L14.3029 9.03765L16.4501 10.3742L8.72513 15.6825L1.00012 10.3742L3.14737 9.03765L1.00012 7.56213L2.95806 6.34343ZM3.79598 6.91922L2.70038 7.60117L8.72513 11.7412L14.7499 7.60117L13.6543 6.91922L8.72512 10.3064L3.79598 6.91922ZM8.72512 9.02646L2.86055 4.99653L8.72512 1.34619L14.5897 4.99653L8.72512 9.02646ZM3.95573 9.63183L3.9956 9.62052L8.72513 12.8705L13.4649 9.61345L13.4945 9.63183L14.7499 10.4132L8.72513 14.5532L2.70038 10.4132L3.95573 9.63183Z" fill="black"></path></svg>
